<?xml version="1.0" encoding="UTF-8"?>
<svg id="Layer_1" data-name="Layer 1" xmlns="http://www.w3.org/2000/svg" xmlns:xlink="http://www.w3.org/1999/xlink" viewBox="0 0 98 54">
  <defs>
    <style>
      .cls-1 {
        opacity: .17;
      }

      .cls-2 {
        fill: none;
      }

      .cls-3 {
        fill: url(#radial-gradient);
      }

      .cls-4 {
        clip-path: url(#clippath);
      }
    </style>
    <clipPath id="clippath">
      <rect class="cls-2" x="-408" y="-1513" width="1926" height="1080"/>
    </clipPath>
    <radialGradient id="radial-gradient" cx="513.5" cy="-486.89" fx="513.5" fy="-486.89" r="996.5" gradientTransform="translate(0 1.25) scale(1 .79)" gradientUnits="userSpaceOnUse">
      <stop offset="0" stop-color="#ffb100"/>
      <stop offset="1" stop-color="#ffb100" stop-opacity="0"/>
    </radialGradient>
  </defs>
  <g class="cls-1">
    <g class="cls-4">
      <ellipse class="cls-3" cx="513.5" cy="-384.5" rx="996.5" ry="789.5"/>
    </g>
  </g>
  <path d="M68.27,21.42c-1.88-4.59-6.22-7.89-11.45-8.22-2.43-3.9-6.74-6.31-11.35-6.31-1.7,0-3.35.31-4.89.92-2.28-4.4-6.85-7.2-11.85-7.2-6.71,0-12.36,5.02-13.22,11.58-.48-.05-.95-.08-1.42-.08-7.43,0-12.61,6.74-13.33,13.25-.41,3.65.33,6.96,2.18,9.86,1.84,2.89,5.02,4.61,8.5,4.61h28.73c0-.54.11-1.07.31-1.57H11.44c-2.94,0-5.62-1.45-7.18-3.89-1.65-2.59-2.31-5.56-1.94-8.84.65-5.83,5.23-11.86,11.77-11.86.66,0,1.33.06,2,.17l.85.14.06-.86c.41-6.14,5.57-10.95,11.74-10.95,4.64,0,8.86,2.73,10.75,6.96l.32.73.72-.34c1.54-.72,3.2-1.08,4.94-1.08,4.19,0,8.1,2.26,10.21,5.9l.22.38h.44c4.84.17,8.88,3.19,10.54,7.43.43-.37.9-.62,1.39-.74Z"/>
  <path d="M87.78,52.39h-37.56c-.63,0-1.26-.05-1.9-.16-5.49-.92-9.48-5.64-9.48-11.22,0-6.03,4.61-10.94,10.56-11.35,2.08-3.3,5.74-5.33,9.65-5.33,1.42,0,2.78.25,4.07.74,1.96-3.69,5.83-6.04,10.05-6.04,5.68,0,10.48,4.23,11.27,9.77.37-.04.73-.05,1.1-.05,6.34,0,10.76,5.74,11.37,11.29.35,3.1-.28,5.93-1.86,8.4-1.58,2.47-4.3,3.95-7.28,3.95ZM59.05,25.9c-3.49,0-6.76,1.88-8.51,4.92l-.22.38h-.44c-5.31.19-9.47,4.49-9.47,9.82,0,4.81,3.44,8.88,8.17,9.67.55.09,1.1.14,1.64.14h37.56c2.44,0,4.66-1.21,5.95-3.22,1.38-2.16,1.92-4.64,1.62-7.38-.54-4.87-4.36-9.9-9.81-9.9-.55,0-1.11.05-1.66.14l-.85.14-.06-.86c-.35-5.12-4.64-9.13-9.79-9.13-3.87,0-7.38,2.28-8.96,5.8l-.32.73-.72-.34c-1.28-.6-2.67-.9-4.12-.9Z"/>
</svg>